<svg width="29" height="28" viewBox="0 0 29 28" fill="none" xmlns="http://www.w3.org/2000/svg">
<g id="ph:question-bold">
<path id="Vector" d="M16.3125 19.6875C16.3125 20.0336 16.2062 20.372 16.007 20.6597C15.8079 20.9475 15.5248 21.1718 15.1936 21.3043C14.8624 21.4367 14.498 21.4714 14.1464 21.4039C13.7948 21.3363 13.4719 21.1697 13.2184 20.9249C12.9649 20.6802 12.7923 20.3684 12.7223 20.0289C12.6524 19.6894 12.6883 19.3376 12.8255 19.0178C12.9627 18.698 13.195 18.4247 13.493 18.2324C13.7911 18.0401 14.1415 17.9375 14.5 17.9375C14.9807 17.9375 15.4417 18.1219 15.7816 18.4501C16.1215 18.7783 16.3125 19.2234 16.3125 19.6875ZM26.7344 14C26.7344 16.3363 26.0168 18.6201 24.6725 20.5627C23.3282 22.5052 21.4174 24.0193 19.1819 24.9133C16.9464 25.8074 14.4864 26.0413 12.1132 25.5855C9.73996 25.1297 7.56 24.0047 5.849 22.3527C4.13799 20.7007 2.97278 18.5959 2.50071 16.3045C2.02864 14.0131 2.27093 11.638 3.19692 9.47955C4.12291 7.3211 5.69102 5.47624 7.70295 4.17827C9.71488 2.88029 12.0803 2.1875 14.5 2.1875C17.7437 2.19097 20.8534 3.43662 23.147 5.65114C25.4407 7.86566 26.7308 10.8682 26.7344 14ZM24.0156 14C24.0156 12.1829 23.4575 10.4066 22.412 8.8957C21.3664 7.38482 19.8802 6.20724 18.1415 5.51186C16.4027 4.81648 14.4894 4.63453 12.6436 4.98904C10.7977 5.34354 9.10223 6.21856 7.77144 7.50346C6.44066 8.78835 5.53438 10.4254 5.16722 12.2076C4.80006 13.9898 4.9885 15.8371 5.70871 17.5159C6.42893 19.1947 7.64857 20.6296 9.21341 21.6391C10.7782 22.6487 12.618 23.1875 14.5 23.1875C17.0229 23.1849 19.4416 22.2161 21.2256 20.4937C23.0095 18.7712 24.0129 16.4359 24.0156 14ZM14.5 7C11.7518 7 9.51563 8.96219 9.51563 11.375V11.8125C9.51563 12.1606 9.65885 12.4944 9.91378 12.7406C10.1687 12.9867 10.5145 13.125 10.875 13.125C11.2355 13.125 11.5813 12.9867 11.8362 12.7406C12.0912 12.4944 12.2344 12.1606 12.2344 11.8125V11.375C12.2344 10.4103 13.2539 9.625 14.5 9.625C15.7461 9.625 16.7656 10.4103 16.7656 11.375C16.7656 12.3397 15.7461 13.125 14.5 13.125C14.1395 13.125 13.7937 13.2633 13.5388 13.5094C13.2838 13.7556 13.1406 14.0894 13.1406 14.4375V15.3125C13.1398 15.6368 13.2634 15.9498 13.4874 16.1914C13.7115 16.4329 14.0203 16.5858 14.3542 16.6206C14.6881 16.6554 15.0235 16.5696 15.2958 16.3797C15.5681 16.1899 15.758 15.9095 15.8288 15.5925C17.9336 15.0806 19.4844 13.3842 19.4844 11.375C19.4844 8.96219 17.2482 7 14.5 7Z" fill="black"/>
</g>
</svg>
